HIERARCHY
ROOT Hips
{
 OFFSET 0.000000 0.000000 0.000000
 CHANNELS 6 Xposition Yposition Zposition Yrotation Xrotation Zrotation
 JOINT Chest
 {
  OFFSET 0.000000 10.678932 0.006280
  CHANNELS 3 Yrotation Xrotation Zrotation
  JOINT Chest2
  {
   OFFSET 0.000000 10.491159 -0.011408
   CHANNELS 3 Yrotation Xrotation Zrotation
   JOINT Chest3
   {
    OFFSET 0.000000 9.479342 0.000000
    CHANNELS 3 Yrotation Xrotation Zrotation
    JOINT Chest4
    {
     OFFSET 0.000000 9.479342 0.000000
     CHANNELS 3 Yrotation Xrotation Zrotation
     JOINT Neck
     {
      OFFSET 0.000000 13.535332 0.000000
      CHANNELS 3 Yrotation Xrotation Zrotation
      JOINT Head
      {
       OFFSET 0.000000 8.819083 -0.027129
       CHANNELS 3 Yrotation Xrotation Zrotation
       End Site
       {
        OFFSET 0.000000 16.966594 -0.014170
       }
      }
     }
     JOINT RightCollar
     {
      OFFSET -3.012546 7.545150 0.000000
      CHANNELS 3 Yrotation Xrotation Zrotation
      JOINT RightShoulder
      {
       OFFSET -13.683099 0.000000 0.000000
       CHANNELS 3 Yrotation Xrotation Zrotation
       JOINT RightElbow
       {
        OFFSET -26.359998 0.000000 0.000000
        CHANNELS 3 Yrotation Xrotation Zrotation
        JOINT RightWrist
        {
         OFFSET -21.746691 0.000000 0.008601
         CHANNELS 3 Yrotation Xrotation Zrotation
         End Site
         {
          OFFSET -16.348058 0.000000 0.000000
         }
        }
       }
      }
     }
     JOINT LeftCollar
     {
      OFFSET 3.012546 7.545150 0.000000
      CHANNELS 3 Yrotation Xrotation Zrotation
      JOINT LeftShoulder
      {
       OFFSET 13.683099 0.000000 0.000000
       CHANNELS 3 Yrotation Xrotation Zrotation
       JOINT LeftElbow
       {
        OFFSET 26.359998 0.000000 0.000000
        CHANNELS 3 Yrotation Xrotation Zrotation
        JOINT LeftWrist
        {
         OFFSET 21.746691 0.000000 0.008601
         CHANNELS 3 Yrotation Xrotation Zrotation
         End Site
         {
          OFFSET 16.348058 0.000000 0.000000
         }
        }
       }
      }
     }
    }
   }
  }
 }
 JOINT RightHip
 {
  OFFSET -8.622479 -0.030774 -0.003140
  CHANNELS 3 Yrotation Xrotation Zrotation
  JOINT RightKnee
  {
   OFFSET 0.000000 -37.209160 -0.002630
   CHANNELS 3 Yrotation Xrotation Zrotation
   JOINT RightAnkle
   {
    OFFSET 0.000000 -37.343279 -0.058479
    CHANNELS 3 Yrotation Xrotation Zrotation
    JOINT RightToe
    {
     OFFSET 0.000000 -8.903465 15.088070
     CHANNELS 3 Yrotation Xrotation Zrotation
     End Site
     {
      OFFSET 0.000000 -1.471739 6.884388
     }
    }
   }
  }
 }
 JOINT LeftHip
 {
  OFFSET 8.622479 -0.030774 -0.003140
  CHANNELS 3 Yrotation Xrotation Zrotation
  JOINT LeftKnee
  {
   OFFSET 0.000000 -37.209160 -0.002630
   CHANNELS 3 Yrotation Xrotation Zrotation
   JOINT LeftAnkle
   {
    OFFSET 0.000000 -37.343279 -0.058479
    CHANNELS 3 Yrotation Xrotation Zrotation
    JOINT LeftToe
    {
     OFFSET 0.000000 -8.903465 15.088070
     CHANNELS 3 Yrotation Xrotation Zrotation
     End Site
     {
      OFFSET 0.000000 -1.471739 6.884388
     }
    }
   }
  }
 }
}
MOTION
Frames: 17
Frame Time: 0.025000
0.000000 83.315683 0.000000 0.000000 -5.826342 0.000000 0.000000 11.116423 0.000000 0.000000 -5.290081 0.000000 0.000000 0.000000 0.000000 0.000000 0.000000 0.000000 0.000000 12.665069 0.000000 0.000000 0.575450 0.000000 0.000000 0.000000 0.000000 0.000000 0.000000 0.000000 2.337306 0.000000 0.000000 -2.337306 0.000000 0.000000 0.000000 0.000000 0.000000 0.000000 0.000000 0.000000 -2.337306 0.000000 0.000000 2.337306 0.000000 0.000000 0.000000 8.578828 0.000000 0.000000 1.905768 0.000000 0.000000 -4.658254 0.000000 0.000000 0.000000 0.000000 0.000000 8.578828 0.000000 0.000000 1.905768 0.000000 0.000000 -4.658254 0.000000 0.000000 0.000000 0.000000
-111.581175 84.807713 79.648116 -157.274558 -5.978372 -0.772334 -1.705712 4.846685 -0.257193 -0.062115 0.180908 -0.003848 -0.101931 0.296851 -0.006418 -1.557644 4.515142 -0.155100 -1.430319 18.981018 0.039550 -2.633178 -0.922594 0.531102 0.879784 -1.473649 10.190048 -12.401607 -2.934194 79.733791 15.595282 18.084341 9.821632 -1.540687 4.806021 -8.409931 2.983450 -3.667950 -14.347541 3.335957 -2.528297 -76.662952 -10.468514 8.863067 -6.420087 -3.554180 4.374392 10.891897 1.924997 4.541034 5.430139 -1.519867 4.401523 -0.419930 -0.491575 -3.752398 -2.596963 -0.040137 -0.084636 -0.039427 -2.955748 5.527837 -3.815294 -2.945833 4.110310 -1.667403 10.570823 -6.394150 1.070020 0.053926 0.075095 -0.032728
-111.545198 84.809529 79.653848 -157.274278 -6.054019 -0.745522 -1.678256 4.872031 -0.243407 -0.061177 0.182174 -0.003563 -0.100378 0.298887 -0.005948 -1.530141 4.535584 -0.146972 -1.437498 19.061250 0.020694 -2.639235 -0.773911 0.497238 0.869229 -1.463441 10.184388 -12.420040 -2.940130 79.700911 15.545999 18.114475 9.803626 -1.553150 4.799259 -8.394938 2.942875 -3.655877 -14.331993 3.358846 -2.509794 -76.718165 -10.473807 8.876580 -6.424847 -3.555469 4.377133 10.891151 1.997187 4.672522 5.421678 -1.392024 4.259415 -0.389163 -0.609986 -3.683318 -2.605897 -0.042312 -0.075249 -0.045743 -3.033539 5.489033 -3.825797 -2.934113 4.295661 -1.679132 10.588930 -6.492967 1.065119 0.053550 0.065944 -0.021630
-111.515058 84.812107 79.661295 -157.260665 -6.131136 -0.720578 -1.669337 4.891828 -0.227735 -0.060987 0.183446 -0.002970 -0.100048 0.300923 -0.004974 -1.520070 4.553086 -0.131778 -1.434064 19.143218 0.009410 -2.628287 -0.622015 0.473835 0.894945 -1.444261 10.164055 -12.453935 -2.938289 79.659428 15.509575 18.143177 9.798555 -1.549770 4.798567 -8.383616 2.961618 -3.639554 -14.311217 3.417080 -2.480442 -76.778004 -10.501880 8.917794 -6.441282 -3.556289 4.380844 10.914126 2.163919 4.761554 5.421380 -1.134663 4.187181 -0.351286 -0.869096 -3.630282 -2.602710 -0.048168 -0.077373 -0.054605 -3.125037 5.455850 -3.827921 -2.960441 4.469083 -1.715825 10.722710 -6.596432 1.061040 0.056147 0.061480 -0.011973
-111.490393 84.812728 79.680480 -157.252233 -6.173659 -0.695258 -1.663643 4.889448 -0.212245 -0.060663 0.183201 -0.002413 -0.099521 0.300537 -0.004060 -1.512912 4.551497 -0.117712 -1.422933 19.220341 0.005142 -2.605581 -0.479089 0.460954 0.937013 -1.419979 10.140730 -12.485264 -2.938314 79.636706 15.461663 18.186783 9.783671 -1.553117 4.791231 -8.386501 2.991703 -3.599550 -14.278300 3.490456 -2.459960 -76.830849 -10.542607 8.963960 -6.452991 -3.556377 4.379736 10.898430 2.396803 4.747671 5.421200 -0.738948 4.229714 -0.305693 -1.240070 -3.632896 -2.597540 -0.054354 -0.071519 -0.058567 -3.208094 5.385629 -3.837263 -2.990414 4.638643 -1.742834 10.877490 -6.706468 1.043855 0.060795 0.066208 0.002038
-111.467572 84.814764 79.714609 -157.264539 -6.211335 -0.666800 -1.661664 4.898316 -0.204237 -0.060779 0.184094 -0.002130 -0.099698 0.301962 -0.003596 -1.511877 4.562643 -0.110637 -1.410704 19.274761 0.010931 -2.584360 -0.378113 0.466598 0.971721 -1.433339 10.128373 -12.452934 -2.940745 79.603120 15.407072 18.194578 9.760105 -1.546588 4.803000 -8.372749 3.017941 -3.579740 -14.237236 3.610162 -2.436222 -76.865862 -10.603401 9.027186 -6.460886 -3.555419 4.387567 10.884481 2.669693 4.652049 5.408873 -0.279288 4.398842 -0.239249 -1.643489 -3.690711 -2.591256 -0.059206 -0.065684 -0.064711 -3.296717 5.311401 -3.854005 -3.021275 4.788173 -1.772632 10.967653 -6.801397 1.034618 0.067429 0.069208 0.016359
-111.432158 84.816853 79.755072 -157.276705 -6.245438 -0.639212 -1.652349 4.915910 -0.210404 -0.060642 0.185330 -0.002285 -0.099457 0.303938 -0.003850 -1.503950 4.578954 -0.114203 -1.405176 19.309617 0.035488 -2.581576 -0.312947 0.509081 0.988043 -1.448591 10.139723 -12.465152 -2.967458 79.582549 15.365478 18.221943 9.764617 -1.534980 4.807295 -8.370637 2.991463 -3.571670 -14.172951 3.699239 -2.405029 -76.876299 -10.628055 9.083947 -6.455607 -3.549299 4.360800 10.901244 2.928729 4.508387 5.409396 0.003664 4.640304 -0.194923 -1.930389 -3.781550 -2.592416 -0.059535 -0.066074 -0.062029 -3.361752 5.244335 -3.850872 -3.070655 4.904972 -1.813543 11.061696 -6.878882 1.019530 0.071608 0.074686 0.027728
-111.395996 84.820198 79.795137 -157.273057 -6.282087 -0.620899 -1.656103 4.923829 -0.214732 -0.060859 0.185907 -0.002002 -0.099803 0.304856 -0.003387 -1.506537 4.585589 -0.107319 -1.408792 19.344251 0.060438 -2.595622 -0.248026 0.555162 0.973591 -1.451534 10.132703 -12.470597 -2.985796 79.581708 15.347312 18.246911 9.773457 -1.529485 4.805916 -8.366100 2.965583 -3.555296 -14.104427 3.741528 -2.346294 -76.889282 -10.618151 9.110864 -6.413331 -3.528243 4.372437 10.901785 3.166852 4.354352 5.426304 0.184592 4.909449 -0.177630 -2.154709 -3.880513 -2.583874 -0.063237 -0.078500 -0.057942 -3.431974 5.202602 -3.836700 -3.126574 4.980192 -1.857923 11.214864 -6.958108 1.003704 0.071415 0.088328 0.034277
-111.368482 84.822156 79.834019 -157.242335 -6.316323 -0.599470 -1.678350 4.933315 -0.222245 -0.061849 0.186727 -0.001913 -0.101409 0.306151 -0.003242 -1.526389 4.592182 -0.105809 -1.418963 19.367137 0.080819 -2.620349 -0.204894 0.595174 0.966709 -1.461270 10.119015 -12.497536 -2.987327 79.595772 15.377353 18.238296 9.800794 -1.519417 4.815758 -8.375725 2.946807 -3.550996 -14.053311 3.781503 -2.282799 -76.862083 -10.567759 9.159541 -6.371758 -3.517048 4.371897 10.902056 3.326006 4.214532 5.433274 0.307427 5.168232 -0.177883 -2.344023 -3.981333 -2.570937 -0.064989 -0.091882 -0.049969 -3.489280 5.179155 -3.830287 -3.198127 5.018169 -1.899733 11.296741 -7.012859 1.000090 0.072212 0.094089 0.039156
-111.350575 84.821652 79.865155 -157.215163 -6.334670 -0.584352 -1.686938 4.943567 -0.218779 -0.062351 0.187338 -0.001685 -0.102221 0.307119 -0.002869 -1.535503 4.598067 -0.100540 -1.447906 19.373054 0.099073 -2.678946 -0.192966 0.637542 0.932129 -1.478294 10.112352 -12.539680 -2.982626 79.595864 15.452364 18.242971 9.845375 -1.508809 4.810904 -8.361493 2.909112 -3.565918 -14.013323 3.820215 -2.234730 -76.829052 -10.490180 9.181051 -6.307319 -3.500565 4.389171 10.915788 3.369745 4.133686 5.421377 0.385542 5.315404 -0.168272 -2.397419 -4.037901 -2.574870 -0.063123 -0.099095 -0.040960 -3.555955 5.159989 -3.812271 -3.246159 5.033076 -1.955317 11.438907 -7.074760 0.992395 0.071069 0.103819 0.046123
-111.335778 84.823895 79.885194 -157.178849 -6.361638 -0.568178 -1.686459 4.955535 -0.227015 -0.062493 0.188247 -0.001993 -0.102440 0.308566 -0.003375 -1.535513 4.608925 -0.108120 -1.492410 19.368545 0.119616 -2.766866 -0.200019 0.689214 0.911484 -1.483301 10.131475 -12.608905 -2.960282 79.590647 15.554336 18.275960 9.895455 -1.498329 4.813076 -8.375901 2.880144 -3.609276 -13.957299 3.832200 -2.179985 -76.795446 -10.393050 9.187223 -6.222500 -3.479176 4.379818 10.942269 3.387825 4.122729 5.401483 0.339148 5.360557 -0.166065 -2.396133 -4.049174 -2.570199 -0.062122 -0.107423 -0.039096 -3.587653 5.165995 -3.797634 -3.320448 5.040370 -1.995124 11.539352 -7.143634 0.962615 0.071980 0.112622 0.059201
-111.306771 84.828438 79.904273 -157.118995 -6.352651 -0.602052 -1.665937 4.940256 -0.185025 -0.060979 0.188603 -0.001543 -0.099960 0.309157 -0.002634 -1.498504 4.619528 -0.095801 -1.564440 19.350048 0.129873 -2.902099 -0.232693 0.731070 0.872347 -1.471663 10.146085 -12.680712 -2.925656 79.581661 15.636371 18.316620 9.927219 -1.488234 4.821360 -8.414648 2.835184 -3.651826 -13.922275 3.797240 -2.162311 -76.750561 -10.267989 9.174343 -6.149036 -3.464129 4.378485 10.960255 3.349663 4.156598 5.434153 0.245553 5.242033 -0.175398 -2.320212 -3.969994 -2.570906 -0.063056 -0.119996 -0.041020 -3.652349 5.131112 -3.702447 -3.371543 5.041789 -2.017144 11.494364 -7.165253 0.861479 0.147402 0.105109 0.108306
-111.279520 84.835026 79.925045 -157.080294 -6.361118 -0.607584 -1.600337 4.960980 -0.164806 -0.058503 0.189517 -0.001106 -0.095899 0.310650 -0.001914 -1.436859 4.640570 -0.082949 -1.645471 19.310235 0.144071 -3.055411 -0.304566 0.783521 0.853113 -1.482945 10.144803 -12.699598 -2.884106 79.572351 15.654414 18.316821 9.914858 -1.490502 4.835911 -8.461830 2.788239 -3.707131 -13.866232 3.779035 -2.155174 -76.731758 -10.205977 9.162536 -6.114390 -3.452763 4.370459 10.971048 3.309175 4.255419 5.438763 0.165546 5.032933 -0.186800 -2.270540 -3.857298 -2.562444 -0.061127 -0.120073 -0.046463 -3.748093 5.088861 -3.675411 -3.399238 5.084767 -2.038153 11.569865 -7.202220 0.826661 0.150106 0.090500 0.107597
-111.242063 84.842271 79.952787 -157.048744 -6.369684 -0.610993 -1.528210 4.989338 -0.146808 -0.055751 0.191025 -0.000708 -0.091378 0.313091 -0.001258 -1.366576 4.669463 -0.070770 -1.723545 19.254766 0.161373 -3.204642 -0.405370 0.841206 0.853758 -1.494690 10.154228 -12.659948 -2.861711 79.539164 15.564792 18.297677 9.851764 -1.489468 4.834330 -8.486965 2.758468 -3.750725 -13.812119 3.807416 -2.149569 -76.719318 -10.254851 9.159275 -6.135289 -3.463923 4.351389 10.979179 3.288246 4.375115 5.439531 0.142195 4.762018 -0.183872 -2.272398 -3.705289 -2.540419 -0.060726 -0.118806 -0.061997 -3.820968 5.014496 -3.647031 -3.410733 5.171978 -2.054506 11.542219 -7.217353 0.807699 0.151724 0.061205 0.098018
-111.196920 84.848495 79.992027 -157.028607 -6.372837 -0.620342 -1.457554 5.031331 -0.134316 -0.053286 0.193454 -0.000368 -0.087316 0.316995 -0.000697 -1.300104 4.707951 -0.060215 -1.782219 19.182715 0.174866 -3.317563 -0.537411 0.886339 0.882025 -1.522519 10.154512 -12.603092 -2.872766 79.543839 15.410797 18.283001 9.757623 -1.485406 4.839688 -8.497646 2.737717 -3.773530 -13.722477 3.879561 -2.145180 -76.734266 -10.438055 9.179721 -6.203136 -3.477666 4.358158 10.974497 3.275640 4.438150 5.448863 0.169746 4.570153 -0.177799 -2.291095 -3.579194 -2.522568 -0.064682 -0.119942 -0.068765 -3.811477 4.921305 -3.599087 -3.467762 5.279520 -2.071193 11.570744 -7.235434 0.781619 0.155392 0.043516 0.090768
-111.155386 84.851531 80.041549 -156.989791 -6.350426 -0.622534 -1.406794 5.072829 -0.132127 -0.051621 0.195893 -0.000380 -0.084564 0.320900 -0.000714 -1.253137 4.743058 -0.058958 -1.810932 19.099976 0.193231 -3.377490 -0.689802 0.931277 0.925190 -1.569306 10.167410 -12.543068 -2.895956 79.544299 15.267066 18.303468 9.674417 -1.481955 4.833459 -8.512797 2.728362 -3.807998 -13.651219 3.954399 -2.122456 -76.726047 -10.675631 9.205249 -6.289388 -3.486549 4.365699 10.989727 3.263368 4.463782 5.449859 0.251368 4.396144 -0.172537 -2.370084 -3.472387 -2.500952 -0.063236 -0.110840 -0.071989 -3.753786 4.814666 -3.536304 -3.592282 5.350700 -2.106300 11.606213 -7.252611 0.757432 0.149093 0.049005 0.088234
-111.115528 84.857057 80.096015 -156.957109 -6.311242 -0.614328 -1.376386 5.107517 -0.137093 -0.050434 0.198251 -0.000458 -0.082596 0.324669 -0.000841 -1.218063 4.775146 -0.059720 -1.817889 19.023581 0.201502 -3.394312 -0.831224 0.950704 0.986216 -1.601006 10.163553 -12.486093 -2.927774 79.544800 15.179003 18.317475 9.633168 -1.487534 4.856399 -8.526893 2.753172 -3.837413 -13.590317 4.015795 -2.107797 -76.719968 -10.869847 9.230579 -6.344458 -3.497439 4.364301 10.988791 3.213816 4.432044 5.436477 0.416230 4.307027 -0.167961 -2.463439 -3.407277 -2.474794 -0.060830 -0.103085 -0.072484 -3.661249 4.719314 -3.496728 -3.735892 5.371963 -2.137474 11.643144 -7.256276 0.741577 0.145667 0.054438 0.093500
